<svg width="140" height="140" viewBox="0 0 140 140" fill="none" xmlns="http://www.w3.org/2000/svg">
<path fill-rule="evenodd" clip-rule="evenodd" d="M77.1999 107.44L106.046 90.869L120.363 99.0933L70.0276 128.122L19.6362 99.0609V40.9385L70.0276 11.8774L120.279 40.8581L105.915 49.1096L77.1999 32.6145V107.44ZM50.9956 65.3542H48.4255V67.9233H50.9956V77.1719H50.9945V74.6028H48.4255V77.1719H45.8564V74.6028H43.2874V77.1719H33.8482V90.7989L63.0701 107.586V32.4684L33.8482 49.255V63.0421H43.2964V65.3542H45.8652V63.0421H50.9956V65.3542ZM58.7027 74.6028H56.1337V77.1719H58.7027V74.6028ZM53.5646 74.6028H50.9956V77.1719H53.5646V74.6028ZM56.1337 69.9785H53.5646V72.5476H56.1337V69.9785ZM48.4255 69.9785H45.8564V72.5476H48.4255V69.9785ZM43.8102 67.4095H41.2412V69.9785H43.8102V67.4095ZM53.5646 65.3542H50.9956V67.9233H53.5646V65.3542ZM56.1337 62.7852H53.5646V65.3542H56.1337V62.7852Z" fill="url(#paint0_linear_84_6972)"/>
<defs>
<linearGradient id="paint0_linear_84_6972" x1="13.4826" y1="30.0997" x2="72.8325" y2="75.8873" gradientUnits="userSpaceOnUse">
<stop stop-color="#6535BB"/>
<stop offset="1" stop-color="#299DE9"/>
</linearGradient>
</defs>
</svg>
